<svg class="peity" height="60" width="100%"><polygon fill="rgba(2, 164, 153,0.3)" points="0 31.735294117647058 0 10.911764705882355 4.822368421052632 24.79411764705882 9.644736842105264 3.970588235294116 14.467105263157896 17.852941176470587 19.289473684210527 42.147058823529406 24.111842105263158 3.970588235294116 28.93421052631579 28.264705882352942 33.756578947368425 42.147058823529406 38.578947368421055 10.911764705882355 43.401315789473685 49.088235294117645 48.223684210526315 0.5 53.04605263157895 24.79411764705882 57.86842105263158 59.5 62.69078947368421 28.264705882352942 67.51315789473685 17.852941176470587 72.33552631578948 3.970588235294116 77.15789473684211 0.5 81.98026315789474 3.970588235294116 86.80263157894737 24.79411764705882 91.625 28.264705882352942 91.625 31.735294117647058"></polygon><polyline fill="none" points="0 10.911764705882355 4.822368421052632 24.79411764705882 9.644736842105264 3.970588235294116 14.467105263157896 17.852941176470587 19.289473684210527 42.147058823529406 24.111842105263158 3.970588235294116 28.93421052631579 28.264705882352942 33.756578947368425 42.147058823529406 38.578947368421055 10.911764705882355 43.401315789473685 49.088235294117645 48.223684210526315 0.5 53.04605263157895 24.79411764705882 57.86842105263158 59.5 62.69078947368421 28.264705882352942 67.51315789473685 17.852941176470587 72.33552631578948 3.970588235294116 77.15789473684211 0.5 81.98026315789474 3.970588235294116 86.80263157894737 24.79411764705882 91.625 28.264705882352942" stroke="rgba(2, 164, 153,0.8)" stroke-width="1" stroke-linecap="square"></polyline></svg>