<svg class="peity" height="60" width="100%"><polygon fill="rgba(2, 164, 153,0.3)" points="0 59.5 0 20.16666666666667 4.822368421052632 46.388888888888886 9.644736842105264 7.055555555555557 14.467105263157896 33.27777777777778 19.289473684210527 39.833333333333336 24.111842105263158 7.055555555555557 28.93421052631579 52.94444444444444 33.756578947368425 39.833333333333336 38.578947368421055 20.16666666666667 43.401315789473685 26.72222222222222 48.223684210526315 0.5 53.04605263157895 46.388888888888886 57.86842105263158 7.055555555555557 62.69078947368421 52.94444444444444 67.51315789473685 33.27777777777778 72.33552631578948 7.055555555555557 77.15789473684211 0.5 81.98026315789474 7.055555555555557 86.80263157894737 46.388888888888886 91.625 52.94444444444444 91.625 59.5"></polygon><polyline fill="none" points="0 20.16666666666667 4.822368421052632 46.388888888888886 9.644736842105264 7.055555555555557 14.467105263157896 33.27777777777778 19.289473684210527 39.833333333333336 24.111842105263158 7.055555555555557 28.93421052631579 52.94444444444444 33.756578947368425 39.833333333333336 38.578947368421055 20.16666666666667 43.401315789473685 26.72222222222222 48.223684210526315 0.5 53.04605263157895 46.388888888888886 57.86842105263158 7.055555555555557 62.69078947368421 52.94444444444444 67.51315789473685 33.27777777777778 72.33552631578948 7.055555555555557 77.15789473684211 0.5 81.98026315789474 7.055555555555557 86.80263157894737 46.388888888888886 91.625 52.94444444444444" stroke="rgba(2, 164, 153,0.8)" stroke-width="1" stroke-linecap="square"></polyline></svg>